# xmcd
#
# Track frame offsets: 
#        150
#        20465
#        46152
#        70692
#        90602
#        110752
#        128437
#        147812
#        176137
#        200702
#        223705
#        241052
#        262117
#        287590
#        315267
#
# Disc length: 4456 seconds
#
# Revision: 1
# Processed by: cddbd v1.5.2PL0 Copyright (c) Steve Scherf et al.
# Submitted via: ExactAudioCopy v0.99pb5
#
DISCID=d511660f
DTITLE=Ray Barretto - The Best
DYEAR=2003
DGENRE=Salsa
TTITLE0=No Me Paren La Salsa
TTITLE1=Ahora Si
TTITLE2=Oye La Noticia
TTITLE3=Mirame De Frente
TTITLE4=Quitate La Mascara
TTITLE5=Llanto De Cocodrilo
TTITLE6=Guaguanco Bontio
TTITLE7=Invitacion Al Son
TTITLE8=Que Viva La Musica
TTITLE9=Acid
TTITLE10=The Soul Drummers
TTITLE11=Fuerza Gigante
TTITLE12=Guarare
TTITLE13=Prestame Tu Mujer
TTITLE14=Indestructible
EXTD=YEAR: 2003
EXTT0=
EXTT1=
EXTT2=
EXTT3=
EXTT4=
EXTT5=
EXTT6=
EXTT7=
EXTT8=
EXTT9=
EXTT10=
EXTT11=
EXTT12=
EXTT13=
EXTT14=
PLAYORDER=
